<svg width="148" height="48" viewBox="0 0 148 48" fill="none" xmlns="http://www.w3.org/2000/svg">
<g clip-path="url(#clip0_198_189)">
<path d="M136.214 3.39297e-05H11.7925C11.3389 3.39297e-05 10.8908 3.39297e-05 10.4385 0.00243393C10.0598 0.00483393 9.68422 0.0118059 9.30194 0.0176739C8.47145 0.0271561 7.64291 0.0980454 6.82353 0.229726C6.00529 0.364273 5.21269 0.617933 4.47253 0.982126C3.73327 1.3494 3.05779 1.82663 2.47059 2.39652C1.8803 2.9648 1.38826 3.62165 1.01337 4.34183C0.637445 5.06056 0.376778 5.83076 0.240371 6.62581C0.102668 7.41986 0.028568 8.22306 0.0187375 9.02821C0.00725999 9.39613 0.00604793 9.76527 0 10.1332V37.8704C0.00604793 38.243 0.00725999 38.6039 0.0187375 38.9766C0.028571 39.7817 0.102671 40.5849 0.240371 41.3789C0.376401 42.1744 0.637084 42.9451 1.01337 43.6641C1.38809 44.3819 1.8802 45.0361 2.47059 45.6012C3.05556 46.1736 3.73148 46.6512 4.47253 47.0157C5.21268 47.3808 6.0052 47.636 6.82353 47.7726C7.64305 47.9033 8.4715 47.9742 9.30194 47.9848C9.68422 47.993 10.0598 47.9976 10.4385 47.9976C10.8908 48 11.3389 48 11.7925 48H136.214C136.659 48 137.11 48 137.555 47.9976C137.932 47.9976 138.318 47.993 138.695 47.9848C139.524 47.9747 140.351 47.9038 141.169 47.7726C141.99 47.635 142.785 47.3799 143.529 47.0157C144.269 46.651 144.944 46.1734 145.529 45.6012C146.118 45.0339 146.611 44.3802 146.99 43.6641C147.364 42.9445 147.622 42.174 147.756 41.3789C147.894 40.5848 147.971 39.7818 147.986 38.9766C147.99 38.6039 147.99 38.243 147.99 37.8704C148 37.4344 148 37.0008 148 36.5578V11.4434C148 11.0039 148 10.568 147.99 10.1332C147.99 9.76527 147.99 9.39613 147.986 9.02816C147.971 8.22294 147.894 7.41992 147.756 6.62576C147.622 5.83117 147.363 5.06104 146.99 4.34178C146.227 2.89827 145.016 1.72326 143.529 0.982018C142.785 0.618715 141.99 0.365122 141.169 0.229618C140.351 0.0973573 139.524 0.0264432 138.695 0.0175059C138.318 0.0116499 137.932 0.00461793 137.555 0.00227793C137.11 -0.00012207 136.659 -0.00012207 136.214 -0.00012207V3.39297e-05Z" fill="#A6A6A6"/>
<path d="M10.4445 46.95C10.0677 46.95 9.69996 46.9454 9.32608 46.9372C8.55158 46.9274 7.77889 46.862 7.01434 46.7415C6.30144 46.6224 5.61083 46.4008 4.96529 46.084C4.32567 45.7699 3.74229 45.358 3.23749 44.8641C2.72538 44.376 2.29903 43.8099 1.97533 43.1883C1.64806 42.5626 1.42157 41.8919 1.30375 41.1996C1.17651 40.4558 1.10767 39.7036 1.09782 38.9496C1.08998 38.6966 1.07971 37.8539 1.07971 37.8539V10.1333C1.07971 10.1333 1.09065 9.30356 1.09788 9.05981C1.10731 8.30703 1.17575 7.55603 1.30261 6.81332C1.42065 6.11915 1.64731 5.44655 1.97476 4.8188C2.29727 4.19758 2.72125 3.63108 3.23028 3.14126C3.73873 2.64679 4.32398 2.23277 4.96469 1.9143C5.60874 1.59856 6.29804 1.37853 7.0095 1.26157C7.77656 1.13985 8.55194 1.07404 9.32913 1.0647L10.4451 1.05005H137.549L138.678 1.06529C139.448 1.07417 140.217 1.13939 140.977 1.2604C141.695 1.37882 142.392 1.60039 143.043 1.91782C144.327 2.55963 145.371 3.57504 146.03 4.82173C146.352 5.44514 146.575 6.11226 146.692 6.80044C146.82 7.54924 146.892 8.30613 146.907 9.06509C146.91 9.40493 146.91 9.76997 146.91 10.1333C146.92 10.5833 146.92 11.0116 146.92 11.4434V36.5578C146.92 36.9938 146.92 37.4192 146.91 37.848C146.91 38.2383 146.91 38.5958 146.906 38.9637C146.891 39.7091 146.821 40.4525 146.694 41.1879C146.579 41.8852 146.354 42.5611 146.026 43.1919C145.7 43.8068 145.277 44.368 144.77 44.8547C144.265 45.3513 143.681 45.7656 143.04 46.0817C142.39 46.4009 141.694 46.6233 140.977 46.7415C140.212 46.8626 139.439 46.9281 138.665 46.9372C138.303 46.9454 137.923 46.95 137.555 46.95L136.214 46.9524L10.4445 46.95Z" fill="black"/>
<path d="M30.634 24.3609C30.6473 23.3593 30.9215 22.3773 31.4311 21.5061C31.9407 20.635 32.6691 19.903 33.5486 19.3784C32.9899 18.6042 32.2528 17.9671 31.3959 17.5177C30.5391 17.0682 29.586 16.8188 28.6123 16.7892C26.5355 16.5777 24.522 17.995 23.4637 17.995C22.3849 17.995 20.7554 16.8102 19.0007 16.8452C17.8657 16.8808 16.7596 17.201 15.7901 17.7747C14.8206 18.3484 14.0208 19.1559 13.4686 20.1187C11.0767 24.1368 12.8609 30.0421 15.1522 33.29C16.2985 34.8804 17.6383 36.6569 19.3914 36.5939C21.1069 36.5249 21.7477 35.5326 23.8184 35.5326C25.87 35.5326 26.4711 36.5939 28.2598 36.5539C30.1006 36.5249 31.2604 34.9564 32.3665 33.3509C33.1902 32.2177 33.824 30.9652 34.2445 29.6399C33.1751 29.201 32.2624 28.4664 31.6203 27.5277C30.9783 26.5889 30.6353 25.4876 30.634 24.3609V24.3609Z" fill="white"/>
<path d="M27.2556 14.6531C28.2593 13.484 28.7537 11.9814 28.634 10.4644C27.1006 10.6206 25.6841 11.3317 24.6669 12.4559C24.1695 13.0051 23.7886 13.644 23.5459 14.3361C23.3031 15.0283 23.2034 15.76 23.2523 16.4896C24.0193 16.4972 24.7781 16.3359 25.4715 16.0178C26.165 15.6997 26.7749 15.2331 27.2556 14.6531Z" fill="white"/>
<path d="M52.3192 32.5676H46.465L45.0591 36.5953H42.5795L48.1245 21.6937H50.7008L56.2458 36.5953H53.7239L52.3192 32.5676ZM47.0713 30.709H51.7118L49.4242 24.1723H49.3602L47.0713 30.709Z" fill="white"/>
<path d="M68.2212 31.1637C68.2212 34.5399 66.3588 36.709 63.5482 36.709C62.8363 36.7452 62.1282 36.5861 61.5051 36.2499C60.882 35.9137 60.3691 35.4141 60.025 34.8082H59.9719V40.1895H57.6734V25.7309H59.8982V27.5379H59.9405C60.3003 26.935 60.8219 26.438 61.4498 26.0997C62.0776 25.7615 62.7882 25.5948 63.5059 25.6172C66.3479 25.6172 68.2212 27.7969 68.2212 31.1637ZM65.8587 31.1637C65.8587 28.9641 64.6872 27.518 62.8996 27.518C61.1435 27.518 59.9622 28.9946 59.9622 31.1637C59.9622 33.3528 61.1435 34.8188 62.8996 34.8188C64.6872 34.8188 65.8587 33.3833 65.8587 31.1637Z" fill="white"/>
<path d="M80.5457 31.1637C80.5457 34.5399 78.6832 36.709 75.8727 36.709C75.1607 36.7452 74.4526 36.586 73.8296 36.2499C73.2065 35.9137 72.6935 35.4141 72.3495 34.8082H72.2963V40.1895H69.9979V25.7309H72.2226V27.5379H72.2649C72.6248 26.935 73.1464 26.4379 73.7742 26.0997C74.402 25.7615 75.1126 25.5948 75.8304 25.6172C78.6724 25.6172 80.5457 27.7969 80.5457 31.1637ZM78.1832 31.1637C78.1832 28.9641 77.0116 27.518 75.2241 27.518C73.4679 27.518 72.2867 28.9946 72.2867 31.1637C72.2867 33.3528 73.4679 34.8188 75.2241 34.8188C77.0116 34.8188 78.1832 33.3833 78.1832 31.1637H78.1832Z" fill="white"/>
<path d="M88.6912 32.4434C88.8615 33.9212 90.3411 34.8914 92.3629 34.8914C94.3002 34.8914 95.694 33.9211 95.694 32.5887C95.694 31.432 94.8534 30.7395 92.8629 30.2649L90.8725 29.7996C88.0522 29.1387 86.743 27.859 86.743 25.7824C86.743 23.2113 89.0523 21.4453 92.3315 21.4453C95.5769 21.4453 97.8017 23.2113 97.8765 25.7824H95.5563C95.4174 24.2953 94.1504 23.3977 92.2989 23.3977C90.4473 23.3977 89.1803 24.3059 89.1803 25.6277C89.1803 26.6813 89.9895 27.3012 91.9691 27.7757L93.6613 28.1789C96.8124 28.9019 98.1217 30.1301 98.1217 32.3097C98.1217 35.0976 95.8329 36.8437 92.1926 36.8437C88.7865 36.8437 86.4869 35.1386 86.3383 32.4433L88.6912 32.4434Z" fill="white"/>
<path d="M103.082 23.1598V25.7309H105.212V27.4969H103.082V33.4864C103.082 34.4168 103.509 34.8504 104.445 34.8504C104.697 34.8461 104.95 34.8289 105.201 34.7988V36.5543C104.78 36.6306 104.352 36.6651 103.924 36.6574C101.657 36.6574 100.773 35.8312 100.773 33.7242V27.4969H99.1448V25.7309H100.773V23.1598H103.082Z" fill="white"/>
<path d="M106.445 31.1637C106.445 27.7453 108.52 25.5973 111.755 25.5973C115.002 25.5973 117.067 27.7453 117.067 31.1637C117.067 34.5914 115.013 36.7301 111.755 36.7301C108.499 36.7301 106.445 34.5914 106.445 31.1637ZM114.725 31.1637C114.725 28.8188 113.618 27.4348 111.755 27.4348C109.893 27.4348 108.787 28.8293 108.787 31.1637C108.787 33.518 109.893 34.8914 111.755 34.8914C113.618 34.8914 114.725 33.518 114.725 31.1637H114.725Z" fill="white"/>
<path d="M118.962 25.7309H121.155V27.5801H121.208C121.356 27.0026 121.705 26.4922 122.195 26.1347C122.686 25.7773 123.288 25.5945 123.901 25.6172C124.166 25.6163 124.43 25.6443 124.689 25.7005V27.7864C124.354 27.6872 124.006 27.6417 123.656 27.6516C123.322 27.6385 122.989 27.6956 122.68 27.8191C122.371 27.9425 122.093 28.1294 121.866 28.3669C121.638 28.6044 121.466 28.8868 121.362 29.1948C121.258 29.5028 121.223 29.8291 121.261 30.1512V36.5954H118.962L118.962 25.7309Z" fill="white"/>
<path d="M135.286 33.4043C134.977 35.3766 132.997 36.7301 130.464 36.7301C127.207 36.7301 125.185 34.6125 125.185 31.2153C125.185 27.8074 127.218 25.5973 130.368 25.5973C133.466 25.5973 135.414 27.6621 135.414 30.9563V31.7203H127.505V31.8551C127.469 32.2549 127.52 32.6577 127.657 33.0367C127.793 33.4158 128.011 33.7623 128.296 34.0534C128.581 34.3444 128.926 34.5733 129.309 34.7249C129.692 34.8765 130.104 34.9472 130.518 34.9324C131.061 34.9818 131.606 34.8598 132.072 34.5844C132.538 34.3091 132.9 33.8952 133.104 33.4043L135.286 33.4043ZM127.516 30.1617H133.114C133.135 29.8022 133.079 29.4425 132.949 29.105C132.82 28.7676 132.62 28.4597 132.362 28.2008C132.104 27.9419 131.794 27.7375 131.451 27.6004C131.108 27.4633 130.739 27.3966 130.368 27.4043C129.994 27.4022 129.622 27.4719 129.276 27.6096C128.93 27.7473 128.615 27.9502 128.35 28.2065C128.085 28.4629 127.875 28.7677 127.731 29.1033C127.588 29.4388 127.515 29.7986 127.516 30.1618V30.1617Z" fill="white"/>
<path d="M49.054 17.6374V14.4962H45.2639V17.6374H44.1177V10.4773H45.2639V13.4843H49.054V10.4773H50.1941V17.6375L49.054 17.6374Z" fill="white"/>
<path d="M56.7828 16.1783C56.6334 16.6722 56.3099 17.0993 55.8687 17.3851C55.4276 17.6709 54.8969 17.7971 54.3696 17.7416C54.0027 17.751 53.638 17.6828 53.301 17.5418C52.964 17.4007 52.6626 17.1902 52.4178 16.9249C52.1731 16.6595 51.9907 16.3456 51.8835 16.005C51.7763 15.6645 51.7468 15.3053 51.7969 14.9525C51.7481 14.5987 51.7782 14.2388 51.8851 13.8971C51.9921 13.5555 52.1735 13.2402 52.4169 12.9725C52.6604 12.7048 52.9603 12.491 53.2964 12.3456C53.6324 12.2001 53.9968 12.1264 54.3647 12.1295C55.9144 12.1295 56.8492 13.1567 56.8492 14.8535V15.2256H52.9166V15.2854C52.8994 15.4836 52.925 15.6832 52.992 15.8713C53.0589 16.0594 53.1656 16.2319 53.3053 16.3776C53.4449 16.5234 53.6144 16.6392 53.8029 16.7177C53.9914 16.7962 54.1947 16.8356 54.3998 16.8334C54.6627 16.864 54.929 16.818 55.165 16.7014C55.4009 16.5847 55.5957 16.4027 55.7247 16.1783L56.7828 16.1783ZM52.9165 14.4369H55.7295C55.7434 14.2556 55.718 14.0734 55.6549 13.9021C55.5919 13.7309 55.4927 13.5743 55.3636 13.4425C55.2345 13.3106 55.0784 13.2065 54.9053 13.1367C54.7322 13.0668 54.546 13.0329 54.3586 13.0371C54.1686 13.0348 53.9799 13.0694 53.8038 13.139C53.6277 13.2085 53.4678 13.3115 53.3334 13.442C53.199 13.5724 53.0929 13.7277 53.0213 13.8985C52.9497 14.0694 52.9141 14.2525 52.9166 14.4369H52.9165Z" fill="white"/>
<path d="M58.3251 12.2338H59.3832V13.0922H59.4653C59.6046 12.7839 59.8396 12.5254 60.1375 12.3528C60.4355 12.1803 60.7814 12.1022 61.1273 12.1295C61.3982 12.1097 61.6703 12.1493 61.9234 12.2455C62.1764 12.3416 62.4039 12.4917 62.5891 12.6847C62.7742 12.8777 62.9122 13.1087 62.9928 13.3605C63.0735 13.6122 63.0947 13.8784 63.0549 14.1392V17.6372H61.9558V14.407C61.9558 13.5387 61.5669 13.1068 60.754 13.1068C60.5701 13.0985 60.3864 13.1289 60.2157 13.1959C60.0449 13.2629 59.8911 13.3649 59.7648 13.495C59.6385 13.625 59.5427 13.78 59.4839 13.9494C59.4251 14.1188 59.4048 14.2984 59.4242 14.4761V17.6373H58.3251V12.2338Z" fill="white"/>
<path d="M66.2435 10.8885V12.2585H67.4501V13.1567H66.2435V15.9352C66.2435 16.5012 66.4839 16.7491 67.031 16.7491C67.1711 16.7487 67.311 16.7404 67.4501 16.7245V17.6128C67.2528 17.6471 67.0528 17.6653 66.8523 17.6673C65.63 17.6673 65.1432 17.2501 65.1432 16.2083V13.1567H64.2591V12.2584H65.1432V10.8885H66.2435Z" fill="white"/>
<path d="M71.7777 10.636C71.7692 10.4979 71.8037 10.3605 71.8766 10.2416C71.9496 10.1227 72.0576 10.0278 72.1868 9.96913C72.316 9.91051 72.4603 9.89086 72.6011 9.91275C72.7419 9.93464 72.8727 9.99705 72.9766 10.0919C73.0804 10.1867 73.1525 10.3096 73.1835 10.4447C73.2145 10.5797 73.203 10.7207 73.1505 10.8494C73.098 10.978 73.0068 11.0884 72.8889 11.1662C72.771 11.244 72.6317 11.2857 72.4891 11.2858C72.3979 11.2903 72.3068 11.2769 72.2211 11.2463C72.1355 11.2158 72.057 11.1688 71.9906 11.1081C71.9241 11.0474 71.871 10.9742 71.8344 10.8931C71.7978 10.812 71.7785 10.7245 71.7777 10.636V10.636ZM71.9419 12.2338H73.0362V17.6373H71.942L71.9419 12.2338Z" fill="white"/>
</g>
<defs>
<clipPath id="clip0_198_189">
<rect width="148" height="48" fill="white"/>
</clipPath>
</defs>
</svg>
